<svg width="670" height="519" viewBox="0 0 670 519" fill="none" xmlns="http://www.w3.org/2000/svg">
<g filter="url(#filter0_d_2609:76582)">
<circle cx="405.925" cy="363.176" r="55.5887" fill="white"/>
</g>
<g filter="url(#filter1_d_2609:76582)">
<circle cx="206.926" cy="105.02" r="88.0196" fill="white"/>
</g>
<path d="M155.055 111.978C150.826 111.978 147.389 108.541 147.389 104.311C147.389 100.363 150.379 97.1048 154.225 96.6959C155.822 93.6293 159.029 91.5337 162.722 91.5337C167.373 91.5337 171.245 94.8431 172.113 99.2514C175.436 99.4814 178.055 102.216 178.055 105.589C178.055 109.116 175.193 111.978 171.666 111.978" stroke="black" stroke-width="1.53332" stroke-linecap="round"/>
<path d="M155.055 111.978C150.826 111.978 147.389 108.541 147.389 104.311C147.389 100.363 150.379 97.1048 154.225 96.6959C155.822 93.6293 159.029 91.5337 162.722 91.5337C167.373 91.5337 171.245 94.8431 172.113 99.2514C175.436 99.4814 178.055 102.216 178.055 105.589C178.055 109.116 175.193 111.978 171.666 111.978" stroke="black" stroke-width="1.53332" stroke-linecap="round"/>
<path d="M156.588 105.334V109.518L162.714 113L168.854 109.518V105.334" stroke="#9A0000" stroke-width="1.53332" stroke-linejoin="round"/>
<path d="M156.588 105.334V109.518L162.714 113L168.854 109.518V105.334" stroke="#9A0000" stroke-width="1.53332" stroke-linejoin="round"/>
<path d="M162.711 108.4L152.756 103.527L162.711 98.4336L172.689 103.527L162.711 108.4Z" stroke="#F48220" stroke-width="1.53332" stroke-linejoin="round"/>
<path d="M162.711 108.4L152.756 103.527L162.711 98.4336L172.689 103.527L162.711 108.4Z" stroke="#F48220" stroke-width="1.53332" stroke-linejoin="round"/>
<path d="M171.922 103.8V108.4" stroke="#F48220" stroke-width="1.53332" stroke-linecap="round"/>
<path d="M171.922 103.8V108.4" stroke="#F48220" stroke-width="1.53332" stroke-linecap="round"/>
<path d="M187.009 107.044V96.3103H195.105V98.411H189.355V100.588H194.415V102.689H189.355V104.943H195.181V107.044H187.009ZM200.259 107.197C199.237 107.197 198.358 106.814 197.622 106.047C196.886 105.28 196.518 104.238 196.518 102.919C196.518 101.611 196.881 100.578 197.606 99.8216C198.342 99.055 199.226 98.6716 200.259 98.6716C201.281 98.6716 202.135 99.0805 202.82 99.8983V95.8503H205.15V107.044H202.82V105.863C202.165 106.752 201.312 107.197 200.259 107.197ZM199.431 104.59C199.819 105.009 200.295 105.219 200.857 105.219C201.419 105.219 201.889 105.009 202.268 104.59C202.656 104.161 202.85 103.604 202.85 102.919C202.85 102.254 202.656 101.713 202.268 101.294C201.889 100.864 201.419 100.65 200.857 100.65C200.295 100.65 199.819 100.864 199.431 101.294C199.042 101.713 198.848 102.265 198.848 102.95C198.848 103.614 199.042 104.161 199.431 104.59ZM209.962 107.197C209.083 107.197 208.398 106.926 207.907 106.384C207.417 105.842 207.171 105.096 207.171 104.146V98.825H209.502V103.41C209.502 103.951 209.624 104.365 209.87 104.652C210.115 104.938 210.463 105.081 210.912 105.081C211.362 105.081 211.715 104.938 211.97 104.652C212.236 104.365 212.369 103.951 212.369 103.41V98.825H214.7V107.044H212.369V105.878C211.684 106.757 210.882 107.197 209.962 107.197ZM220.665 107.228C219.438 107.228 218.416 106.814 217.598 105.986C216.791 105.158 216.387 104.146 216.387 102.95C216.387 101.764 216.796 100.757 217.614 99.929C218.432 99.0908 219.459 98.6716 220.696 98.6716C222.014 98.6716 223.103 99.1521 223.962 100.113L222.597 101.493C222.025 100.951 221.386 100.68 220.68 100.68C220.108 100.68 219.633 100.9 219.254 101.34C218.876 101.779 218.687 102.316 218.687 102.95C218.687 103.594 218.876 104.135 219.254 104.575C219.643 105.004 220.149 105.219 220.772 105.219C221.416 105.219 222.045 104.928 222.658 104.345L224.023 105.725C223.573 106.216 223.093 106.589 222.582 106.844C222.071 107.1 221.432 107.228 220.665 107.228ZM227.876 107.197C227.069 107.197 226.394 106.972 225.852 106.522C225.321 106.072 225.055 105.449 225.055 104.652C225.055 103.783 225.351 103.128 225.944 102.689C226.547 102.249 227.355 102.03 228.367 102.03C229.052 102.03 229.721 102.142 230.375 102.367V102.229C230.375 101.227 229.788 100.726 228.612 100.726C227.907 100.726 227.15 100.875 226.343 101.171L225.76 99.3923C226.762 98.9528 227.825 98.733 228.949 98.733C230.186 98.733 231.111 99.0396 231.725 99.653C232.318 100.246 232.614 101.12 232.614 102.275V107.044H230.36V106.154C229.737 106.849 228.909 107.197 227.876 107.197ZM228.581 105.587C229.123 105.587 229.563 105.454 229.9 105.188C230.237 104.912 230.406 104.565 230.406 104.146V103.732C229.967 103.527 229.471 103.425 228.919 103.425C228.408 103.425 228.009 103.527 227.723 103.732C227.447 103.926 227.309 104.212 227.309 104.59C227.309 104.897 227.426 105.142 227.661 105.326C227.897 105.5 228.203 105.587 228.581 105.587ZM237.32 107.182C236.553 107.182 235.96 106.998 235.541 106.63C235.132 106.251 234.928 105.612 234.928 104.713V100.818H233.947V98.825H234.928V96.7243H237.259V98.825H239.191V100.818H237.259V104.33C237.259 104.861 237.509 105.127 238.01 105.127C238.419 105.127 238.802 105.03 239.16 104.836V106.706C238.628 107.023 238.015 107.182 237.32 107.182ZM240.955 97.9203V95.8503H243.408V97.9203H240.955ZM241.016 107.044V98.825H243.347V107.044H241.016ZM252.742 105.986C251.894 106.814 250.836 107.228 249.568 107.228C248.301 107.228 247.243 106.819 246.394 106.001C245.556 105.173 245.137 104.156 245.137 102.95C245.137 101.754 245.561 100.742 246.409 99.9136C247.268 99.0856 248.331 98.6716 249.599 98.6716C250.866 98.6716 251.919 99.0856 252.757 99.9136C253.606 100.731 254.03 101.743 254.03 102.95C254.03 104.146 253.601 105.158 252.742 105.986ZM249.599 105.219C250.243 105.219 250.759 105.004 251.147 104.575C251.536 104.135 251.73 103.594 251.73 102.95C251.73 102.326 251.526 101.794 251.117 101.355C250.718 100.905 250.202 100.68 249.568 100.68C248.924 100.68 248.408 100.9 248.019 101.34C247.631 101.769 247.437 102.306 247.437 102.95C247.437 103.573 247.636 104.11 248.035 104.56C248.444 104.999 248.965 105.219 249.599 105.219ZM255.718 107.044V98.825H258.048V99.9903C258.733 99.1112 259.536 98.6716 260.456 98.6716C261.335 98.6716 262.02 98.9425 262.51 99.4843C263.001 100.026 263.246 100.772 263.246 101.723V107.044H260.916V102.459C260.916 101.917 260.793 101.503 260.548 101.217C260.302 100.931 259.955 100.788 259.505 100.788C259.055 100.788 258.697 100.931 258.432 101.217C258.176 101.503 258.048 101.917 258.048 102.459V107.044H255.718Z" fill="black"/>
<g filter="url(#filter2_d_2609:76582)">
<circle cx="267.036" cy="350.98" r="85.5691" fill="white"/>
</g>
<g clip-path="url(#clip0_2609:76582)">
<path fill-rule="evenodd" clip-rule="evenodd" d="M230.881 345.056C228.777 345.056 226.947 346.253 226.034 348.011L225.866 348.334L225.504 348.373C223.382 348.599 221.727 350.405 221.727 352.597C221.727 354.945 223.63 356.85 225.965 356.85C226.339 356.85 226.643 357.154 226.643 357.528C226.643 357.903 226.339 358.206 225.965 358.206C222.877 358.206 220.371 355.69 220.371 352.597C220.371 349.833 222.368 347.529 225.003 347.074C226.188 345.058 228.376 343.7 230.881 343.7C234.023 343.7 236.662 345.826 237.455 348.728C239.691 349.123 241.391 351.062 241.391 353.419C241.391 356.06 239.254 358.206 236.616 358.206C236.242 358.206 235.938 357.903 235.938 357.528C235.938 357.154 236.242 356.85 236.616 356.85C238.501 356.85 240.035 355.315 240.035 353.419C240.035 351.61 238.636 350.142 236.856 350.019L236.338 349.983L236.238 349.473C235.741 346.948 233.531 345.056 230.881 345.056Z" fill="black"/>
<path fill-rule="evenodd" clip-rule="evenodd" d="M227.216 351.249C228.036 353.595 229.289 355.768 230.912 357.654C232.536 355.768 233.789 353.595 234.609 351.249C232.166 350.786 229.659 350.786 227.216 351.249ZM226.184 350.079C229.296 349.368 232.529 349.368 235.641 350.079L236.352 350.242L236.138 350.94C235.199 353.989 233.584 356.79 231.409 359.132L230.912 359.668L230.416 359.132C228.241 356.79 226.626 353.989 225.687 350.94L225.473 350.242L226.184 350.079Z" fill="#F48220"/>
<path d="M230.842 353.728C231.382 353.728 231.82 353.305 231.82 352.782C231.82 352.26 231.382 351.837 230.842 351.837C230.301 351.837 229.863 352.26 229.863 352.782C229.863 353.305 230.301 353.728 230.842 353.728Z" fill="#A92101"/>
<path d="M231.43 353.141C231.43 352.817 231.167 352.554 230.843 352.554C230.519 352.554 230.256 352.817 230.256 353.141V354.642C230.256 354.966 230.519 355.229 230.843 355.229C231.167 355.229 231.43 354.966 231.43 354.642V353.141Z" fill="#A92101"/>
</g>
<path d="M250.346 355.31C249.207 355.31 248.223 354.939 247.395 354.197L248.299 353.114C248.982 353.677 249.674 353.958 250.376 353.958C250.688 353.958 250.933 353.899 251.112 353.779C251.291 353.66 251.38 353.495 251.38 353.283C251.38 353.084 251.287 352.925 251.102 352.806C250.916 352.68 250.542 352.544 249.979 352.398C249.581 352.299 249.26 352.203 249.015 352.11C248.77 352.011 248.534 351.881 248.309 351.722C248.091 351.563 247.928 351.365 247.822 351.126C247.723 350.881 247.673 350.589 247.673 350.252C247.673 349.622 247.898 349.115 248.349 348.731C248.806 348.347 249.392 348.155 250.108 348.155C251.095 348.155 251.956 348.449 252.692 349.039L251.897 350.192C251.241 349.735 250.638 349.506 250.088 349.506C249.803 349.506 249.581 349.566 249.422 349.685C249.27 349.798 249.194 349.947 249.194 350.132C249.194 350.358 249.29 350.526 249.482 350.639C249.674 350.752 250.078 350.888 250.694 351.047C251.45 351.245 252.006 351.5 252.364 351.812C252.722 352.123 252.9 352.57 252.9 353.153C252.9 353.829 252.665 354.359 252.195 354.743C251.731 355.121 251.115 355.31 250.346 355.31ZM255.58 355.31C255.057 355.31 254.62 355.164 254.268 354.873C253.924 354.581 253.752 354.177 253.752 353.66C253.752 353.097 253.944 352.673 254.328 352.388C254.719 352.103 255.242 351.961 255.898 351.961C256.342 351.961 256.776 352.034 257.2 352.179V352.09C257.2 351.441 256.819 351.116 256.057 351.116C255.6 351.116 255.11 351.212 254.586 351.404L254.209 350.252C254.858 349.967 255.547 349.824 256.276 349.824C257.077 349.824 257.677 350.023 258.075 350.42C258.459 350.805 258.651 351.371 258.651 352.12V355.211H257.19V354.634C256.786 355.085 256.249 355.31 255.58 355.31ZM256.037 354.266C256.388 354.266 256.673 354.18 256.892 354.008C257.111 353.829 257.22 353.604 257.22 353.332V353.064C256.935 352.931 256.614 352.865 256.256 352.865C255.925 352.865 255.666 352.931 255.481 353.064C255.302 353.19 255.212 353.375 255.212 353.62C255.212 353.819 255.289 353.978 255.441 354.097C255.593 354.21 255.792 354.266 256.037 354.266ZM260.209 355.211V351.176H259.583V349.934H260.209V349.596C260.209 349.019 260.352 348.589 260.637 348.304C260.915 348.025 261.322 347.886 261.859 347.886C262.263 347.886 262.621 347.936 262.932 348.035V349.288C262.694 349.201 262.465 349.158 262.246 349.158C261.882 349.158 261.7 349.35 261.7 349.735V349.943H262.922V351.176H261.72V355.211H260.209ZM266.173 355.33C265.364 355.33 264.698 355.075 264.175 354.565C263.652 354.048 263.39 353.379 263.39 352.557C263.39 351.782 263.638 351.126 264.135 350.589C264.632 350.053 265.262 349.784 266.024 349.784C266.865 349.784 267.508 350.063 267.951 350.619C268.395 351.176 268.617 351.861 268.617 352.676C268.617 352.756 268.611 352.888 268.597 353.074H264.891C264.963 353.412 265.113 353.67 265.338 353.849C265.563 354.028 265.848 354.117 266.192 354.117C266.663 354.117 267.093 353.935 267.484 353.571L268.349 354.336C267.812 354.999 267.087 355.33 266.173 355.33ZM264.871 352.13H267.146C267.1 351.785 266.978 351.51 266.779 351.305C266.587 351.1 266.335 350.997 266.024 350.997C265.719 350.997 265.464 351.1 265.258 351.305C265.06 351.504 264.93 351.779 264.871 352.13ZM276.141 355.33C275.121 355.33 274.269 354.985 273.587 354.296C272.911 353.601 272.573 352.746 272.573 351.732C272.573 350.725 272.915 349.874 273.597 349.178C274.279 348.483 275.147 348.135 276.201 348.135C276.804 348.135 277.31 348.234 277.721 348.433C278.132 348.625 278.523 348.903 278.894 349.268L277.98 350.321C277.681 350.049 277.4 349.854 277.135 349.735C276.877 349.609 276.562 349.546 276.191 349.546C275.608 349.546 275.124 349.758 274.74 350.182C274.362 350.599 274.173 351.116 274.173 351.732C274.173 352.342 274.362 352.859 274.74 353.283C275.124 353.707 275.608 353.919 276.191 353.919C276.562 353.919 276.883 353.852 277.155 353.72C277.426 353.587 277.715 353.382 278.019 353.104L278.993 354.147C278.616 354.551 278.205 354.849 277.761 355.042C277.324 355.234 276.784 355.33 276.141 355.33ZM284.633 354.525C284.083 355.061 283.398 355.33 282.576 355.33C281.754 355.33 281.069 355.065 280.519 354.535C279.976 353.998 279.704 353.339 279.704 352.557C279.704 351.782 279.979 351.126 280.529 350.589C281.085 350.053 281.774 349.784 282.596 349.784C283.417 349.784 284.1 350.053 284.643 350.589C285.193 351.119 285.468 351.775 285.468 352.557C285.468 353.332 285.19 353.988 284.633 354.525ZM282.596 354.028C283.013 354.028 283.348 353.889 283.6 353.611C283.851 353.326 283.977 352.974 283.977 352.557C283.977 352.153 283.845 351.808 283.58 351.524C283.321 351.232 282.987 351.086 282.576 351.086C282.159 351.086 281.824 351.229 281.572 351.514C281.321 351.792 281.195 352.14 281.195 352.557C281.195 352.961 281.324 353.309 281.582 353.601C281.847 353.885 282.185 354.028 282.596 354.028ZM286.562 355.211V349.884H288.072V350.639C288.516 350.069 289.036 349.784 289.633 349.784C290.202 349.784 290.646 349.96 290.964 350.311C291.282 350.662 291.441 351.146 291.441 351.762V355.211H289.931V352.239C289.931 351.888 289.851 351.62 289.692 351.434C289.533 351.249 289.308 351.156 289.016 351.156C288.725 351.156 288.493 351.249 288.321 351.434C288.155 351.62 288.072 351.888 288.072 352.239V355.211H286.562ZM292.753 355.211V349.884H294.264V350.639C294.708 350.069 295.228 349.784 295.824 349.784C296.394 349.784 296.838 349.96 297.156 350.311C297.474 350.662 297.633 351.146 297.633 351.762V355.211H296.122V352.239C296.122 351.888 296.043 351.62 295.884 351.434C295.725 351.249 295.5 351.156 295.208 351.156C294.917 351.156 294.685 351.249 294.512 351.434C294.347 351.62 294.264 351.888 294.264 352.239V355.211H292.753ZM301.469 355.33C300.661 355.33 299.995 355.075 299.472 354.565C298.949 354.048 298.687 353.379 298.687 352.557C298.687 351.782 298.935 351.126 299.432 350.589C299.929 350.053 300.558 349.784 301.32 349.784C302.162 349.784 302.804 350.063 303.248 350.619C303.692 351.176 303.914 351.861 303.914 352.676C303.914 352.756 303.907 352.888 303.894 353.074H300.187C300.26 353.412 300.409 353.67 300.635 353.849C300.86 354.028 301.145 354.117 301.489 354.117C301.96 354.117 302.39 353.935 302.781 353.571L303.646 354.336C303.109 354.999 302.384 355.33 301.469 355.33ZM300.168 352.13H302.443C302.397 351.785 302.274 351.51 302.076 351.305C301.883 351.1 301.632 350.997 301.32 350.997C301.016 350.997 300.761 351.1 300.555 351.305C300.356 351.504 300.227 351.779 300.168 352.13ZM307.554 355.33C306.759 355.33 306.097 355.061 305.567 354.525C305.043 353.988 304.782 353.332 304.782 352.557C304.782 351.789 305.047 351.136 305.577 350.599C306.107 350.056 306.772 349.784 307.574 349.784C308.429 349.784 309.134 350.096 309.691 350.719L308.806 351.613C308.435 351.262 308.021 351.086 307.564 351.086C307.193 351.086 306.885 351.229 306.64 351.514C306.395 351.799 306.272 352.146 306.272 352.557C306.272 352.974 306.395 353.326 306.64 353.611C306.892 353.889 307.22 354.028 307.624 354.028C308.041 354.028 308.449 353.839 308.846 353.461L309.731 354.356C309.439 354.674 309.128 354.916 308.796 355.081C308.465 355.247 308.051 355.33 307.554 355.33ZM312.516 355.3C312.019 355.3 311.635 355.181 311.363 354.942C311.098 354.697 310.966 354.283 310.966 353.7V351.176H310.33V349.884H310.966V348.522H312.476V349.884H313.728V351.176H312.476V353.452C312.476 353.796 312.639 353.968 312.963 353.968C313.228 353.968 313.477 353.905 313.709 353.779V354.992C313.364 355.197 312.967 355.3 312.516 355.3Z" fill="black"/>
<g filter="url(#filter3_d_2609:76582)">
<circle cx="142.163" cy="242.167" r="91.1632" fill="white"/>
</g>
<g filter="url(#filter4_d_2609:76582)">
<circle cx="527.25" cy="289.555" r="92.2111" fill="white"/>
</g>
<g filter="url(#filter5_d_2609:76582)">
<circle cx="519.31" cy="153.73" r="66.7303" fill="white"/>
</g>
<path d="M488.905 164.741C484.578 164.741 481.061 161.224 481.061 156.897C481.061 152.857 484.12 149.523 488.055 149.104C489.69 145.966 492.971 143.822 496.75 143.822C501.509 143.822 505.471 147.208 506.36 151.719C509.759 151.955 512.439 154.752 512.439 158.204C512.439 161.813 509.511 164.741 505.902 164.741" stroke="black" stroke-width="1.56893" stroke-linecap="round"/>
<path d="M488.905 164.741C484.578 164.741 481.061 161.224 481.061 156.897C481.061 152.857 484.12 149.523 488.055 149.104C489.69 145.966 492.971 143.822 496.75 143.822C501.509 143.822 505.471 147.208 506.36 151.719C509.759 151.955 512.439 154.752 512.439 158.204C512.439 161.813 509.511 164.741 505.902 164.741" stroke="black" stroke-width="1.56893" stroke-linecap="round"/>
<path d="M488.904 154.017L494.003 164.215L499.102 154.017" stroke="#F48220" stroke-width="1.56893" stroke-linejoin="round"/>
<path d="M488.904 154.017L494.003 164.215L499.102 154.017" stroke="#F48220" stroke-width="1.56893" stroke-linejoin="round"/>
<path d="M493.611 154.017L498.71 164.215L503.809 154.017" stroke="#9A0000" stroke-width="1.56893" stroke-linejoin="round"/>
<path d="M493.611 154.017L498.71 164.215L503.809 154.017" stroke="#9A0000" stroke-width="1.56893" stroke-linejoin="round"/>
<path d="M488.121 154.017H490.474" stroke="#F48220" stroke-width="1.56893" stroke-linecap="round" stroke-linejoin="round"/>
<path d="M488.121 154.017H490.474" stroke="#F48220" stroke-width="1.56893" stroke-linecap="round" stroke-linejoin="round"/>
<path d="M492.828 154.017H495.182" stroke="#9A0000" stroke-width="1.56893" stroke-linecap="round" stroke-linejoin="round"/>
<path d="M492.828 154.017H495.182" stroke="#9A0000" stroke-width="1.56893" stroke-linecap="round" stroke-linejoin="round"/>
<path d="M497.535 154.017H499.889" stroke="#F48220" stroke-width="1.56893" stroke-linecap="round" stroke-linejoin="round"/>
<path d="M497.535 154.017H499.889" stroke="#F48220" stroke-width="1.56893" stroke-linecap="round" stroke-linejoin="round"/>
<path d="M502.24 154.017H504.594" stroke="#9A0000" stroke-width="1.56893" stroke-linecap="round" stroke-linejoin="round"/>
<path d="M502.24 154.017H504.594" stroke="#9A0000" stroke-width="1.56893" stroke-linecap="round" stroke-linejoin="round"/>
<path d="M524.504 158.899L520.754 147.838H523.343L525.618 155.275L528.081 147.807H530.152L532.615 155.275L534.89 147.838H537.416L533.666 158.899H531.564L529.085 151.714L526.606 158.899H524.504ZM538.772 149.486V147.368H541.282V149.486H538.772ZM538.835 158.821V150.411H541.219V158.821H538.835ZM543.459 158.821V147.368H545.844V153.471L548.637 150.411H551.492L548.291 153.722L551.602 158.821H548.872L546.675 155.385L545.844 156.264V158.821H543.459ZM552.791 149.486V147.368H555.301V149.486H552.791ZM552.854 158.821V150.411H555.239V158.821H552.854Z" fill="black"/>
<path d="M385.096 375.121C381.687 375.121 378.916 372.35 378.916 368.94C378.916 365.757 381.326 363.13 384.427 362.801C385.715 360.329 388.3 358.639 391.277 358.639C395.026 358.639 398.148 361.307 398.848 364.861C401.526 365.046 403.638 367.251 403.638 369.97C403.638 372.813 401.331 375.121 398.488 375.121" stroke="black" stroke-width="1.2361" stroke-linecap="round"/>
<path d="M385.096 375.121C381.687 375.121 378.916 372.35 378.916 368.94C378.916 365.757 381.326 363.13 384.427 362.801C385.715 360.329 388.3 358.639 391.277 358.639C395.026 358.639 398.148 361.307 398.848 364.861C401.526 365.046 403.638 367.251 403.638 369.97C403.638 372.813 401.331 375.121 398.488 375.121" stroke="black" stroke-width="1.2361" stroke-linecap="round"/>
<path d="M385.354 369.455H397.199" stroke="#9A0000" stroke-width="1.2361" stroke-linecap="round" stroke-linejoin="round"/>
<path d="M385.354 369.455H397.199" stroke="#9A0000" stroke-width="1.2361" stroke-linecap="round" stroke-linejoin="round"/>
<path d="M391.276 375.378C394.548 375.378 397.199 372.726 397.199 369.455C397.199 366.184 394.548 363.532 391.276 363.532C388.005 363.532 385.354 366.184 385.354 369.455C385.354 372.726 388.005 375.378 391.276 375.378Z" stroke="#F48220" stroke-width="1.2361" stroke-linecap="round" stroke-linejoin="round"/>
<path d="M391.276 375.378C394.548 375.378 397.199 372.726 397.199 369.455C397.199 366.184 394.548 363.532 391.276 363.532C388.005 363.532 385.354 366.184 385.354 369.455C385.354 372.726 388.005 375.378 391.276 375.378Z" stroke="#F48220" stroke-width="1.2361" stroke-linecap="round" stroke-linejoin="round"/>
<path d="M391.277 363.532C392.759 365.154 393.601 367.259 393.647 369.455C393.601 371.651 392.759 373.756 391.277 375.378C389.796 373.756 388.954 371.651 388.908 369.455C388.954 367.259 389.796 365.154 391.277 363.532V363.532Z" stroke="#F48220" stroke-width="1.2361" stroke-linecap="round" stroke-linejoin="round"/>
<path d="M391.277 363.532C392.759 365.154 393.601 367.259 393.647 369.455C393.601 371.651 392.759 373.756 391.277 375.378C389.796 373.756 388.954 371.651 388.908 369.455C388.954 367.259 389.796 365.154 391.277 363.532V363.532Z" stroke="#F48220" stroke-width="1.2361" stroke-linecap="round" stroke-linejoin="round"/>
<path d="M413.143 370.829L410.189 362.114H412.229L414.021 367.974L415.962 362.09H417.593L419.534 367.974L421.326 362.114H423.317L420.362 370.829H418.706L416.753 365.168L414.8 370.829H413.143ZM426.86 370.915C425.854 370.915 425.026 370.598 424.375 369.964C423.724 369.321 423.399 368.489 423.399 367.467C423.399 366.503 423.708 365.687 424.326 365.019C424.944 364.352 425.727 364.018 426.674 364.018C427.721 364.018 428.52 364.364 429.072 365.056C429.624 365.749 429.9 366.601 429.9 367.615C429.9 367.714 429.892 367.879 429.876 368.109H425.265C425.356 368.53 425.541 368.851 425.821 369.074C426.102 369.296 426.456 369.407 426.884 369.407C427.469 369.407 428.005 369.181 428.491 368.728L429.567 369.679C428.899 370.503 427.997 370.915 426.86 370.915ZM425.24 366.935H428.071C428.013 366.507 427.861 366.165 427.614 365.909C427.375 365.654 427.062 365.526 426.674 365.526C426.295 365.526 425.978 365.654 425.722 365.909C425.475 366.156 425.315 366.498 425.24 366.935ZM435.244 370.891C434.42 370.891 433.732 370.561 433.18 369.902V370.767H431.301V361.744H433.18V365.093C433.707 364.376 434.395 364.018 435.244 364.018C436.068 364.018 436.777 364.327 437.37 364.945C437.963 365.563 438.26 366.404 438.26 367.467C438.26 368.522 437.963 369.358 437.37 369.976C436.785 370.586 436.076 370.891 435.244 370.891ZM433.612 368.789C433.925 369.127 434.309 369.296 434.762 369.296C435.215 369.296 435.598 369.127 435.911 368.789C436.225 368.443 436.381 367.994 436.381 367.442C436.381 366.906 436.225 366.47 435.911 366.132C435.598 365.786 435.215 365.613 434.762 365.613C434.309 365.613 433.925 365.786 433.612 366.132C433.307 366.47 433.155 366.915 433.155 367.467C433.155 368.002 433.307 368.443 433.612 368.789Z" fill="black"/>
<path d="M475.226 297.259C472.336 297.259 470.25 294.91 470.25 292.021C470.25 289.323 472.293 287.097 474.921 286.818C476.012 284.722 478.203 283.291 480.726 283.291C483.904 283.291 486.549 285.552 487.143 288.563C489.412 288.721 491.202 290.589 491.202 292.894C491.202 295.303 489.246 297.259 486.837 297.259" stroke="black" stroke-width="1.0476" stroke-linecap="round"/>
<circle cx="479.286" cy="289.794" r="2.16067" stroke="#F48220" stroke-width="1.0476"/>
<path d="M482.689 291.955C483.883 291.955 484.85 290.988 484.85 289.794C484.85 288.601 483.883 287.634 482.689 287.634" stroke="#9A0000" stroke-width="1.0476" stroke-linecap="round" stroke-linejoin="round"/>
<path d="M479.287 293.396C477.366 293.396 475.926 294.356 475.926 295.556C475.926 296.276 477.366 296.997 479.287 296.997C481.207 296.997 482.648 296.276 482.648 295.556C482.648 294.356 481.207 293.396 479.287 293.396Z" stroke="#F48220" stroke-width="1.0476" stroke-linecap="round" stroke-linejoin="round"/>
<path d="M483.891 293.582C485.139 293.918 486.051 294.672 486.051 295.556C486.051 296.087 485.139 296.617 483.891 296.86" stroke="#9A0000" stroke-width="1.0476" stroke-linecap="round" stroke-linejoin="round"/>
<path d="M500.756 293.416C502.17 293.416 503.008 292.976 503.762 292.17L502.736 291.07C502.159 291.593 501.646 291.929 500.808 291.929C499.551 291.929 498.681 290.881 498.681 289.624C498.681 288.346 499.572 287.319 500.808 287.319C501.646 287.319 502.128 287.623 502.694 288.136L503.657 287.026C502.976 286.355 502.201 285.832 500.818 285.832C498.566 285.832 496.995 287.539 496.995 289.624C496.995 291.751 498.598 293.416 500.756 293.416ZM507.539 293.416C509.288 293.416 510.587 292.107 510.587 290.494C510.587 288.859 509.299 287.571 507.56 287.571C505.81 287.571 504.511 288.88 504.511 290.494C504.511 292.128 505.8 293.416 507.539 293.416ZM507.56 292.044C506.68 292.044 506.083 291.321 506.083 290.494C506.083 289.645 506.628 288.943 507.539 288.943C508.419 288.943 509.016 289.666 509.016 290.494C509.016 291.342 508.471 292.044 507.56 292.044ZM511.74 293.291H513.333V290.158C513.333 289.404 513.699 289.016 514.297 289.016C514.894 289.016 515.229 289.404 515.229 290.158V293.291H516.821V290.158C516.821 289.404 517.188 289.016 517.785 289.016C518.382 289.016 518.717 289.404 518.717 290.158V293.291H520.31V289.634C520.31 288.283 519.597 287.571 518.414 287.571C517.649 287.571 517.062 287.885 516.57 288.461C516.277 287.895 515.721 287.571 514.988 287.571C514.181 287.571 513.699 288 513.333 288.472V287.675H511.74V293.291ZM521.695 293.291H523.287V290.158C523.287 289.404 523.654 289.016 524.251 289.016C524.848 289.016 525.183 289.404 525.183 290.158V293.291H526.776V290.158C526.776 289.404 527.142 289.016 527.739 289.016C528.336 289.016 528.672 289.404 528.672 290.158V293.291H530.264V289.634C530.264 288.283 529.552 287.571 528.368 287.571C527.603 287.571 527.016 287.885 526.524 288.461C526.231 287.895 525.676 287.571 524.942 287.571C524.136 287.571 523.654 288 523.287 288.472V287.675H521.695V293.291ZM533.514 293.395C534.32 293.395 534.792 292.966 535.158 292.494V293.291H536.751V287.675H535.158V290.808C535.158 291.562 534.771 291.95 534.163 291.95C533.556 291.95 533.199 291.562 533.199 290.808V287.675H531.607V291.311C531.607 292.599 532.309 293.395 533.514 293.395ZM538.176 293.291H539.768V290.158C539.768 289.404 540.156 289.016 540.763 289.016C541.371 289.016 541.727 289.404 541.727 290.158V293.291H543.32V289.655C543.32 288.367 542.618 287.571 541.413 287.571C540.606 287.571 540.135 288 539.768 288.472V287.675H538.176V293.291ZM544.734 287.057H546.411V285.643H544.734V287.057ZM544.776 293.291H546.369V287.675H544.776V293.291ZM549.76 293.385C550.295 293.385 550.682 293.259 551.017 293.06V291.782C550.787 291.908 550.525 291.981 550.232 291.981C549.876 291.981 549.718 291.803 549.718 291.436V289.037H551.038V287.675H549.718V286.24H548.126V287.675H547.456V289.037H548.126V291.698C548.126 292.997 548.786 293.385 549.76 293.385ZM553.553 294.998C554.506 294.998 554.967 294.569 555.397 293.427L557.555 287.675H555.9L554.674 291.499L553.396 287.675H551.709L553.909 293.312C553.773 293.594 553.626 293.678 553.354 293.678C553.144 293.678 552.883 293.584 552.673 293.458L552.139 294.611C552.547 294.852 552.977 294.998 553.553 294.998ZM563.74 293.343H565.144L566.799 288.545L568.454 293.343H569.858L572.362 285.957H570.675L569.156 290.923L567.511 285.936H566.129L564.484 290.923L562.965 285.957H561.236L563.74 293.343ZM575.365 293.416C576.381 293.416 577.135 293.018 577.659 292.369L576.747 291.562C576.307 291.971 575.92 292.138 575.386 292.138C574.673 292.138 574.17 291.761 574.013 291.038H577.921C577.931 290.892 577.942 290.745 577.942 290.619C577.942 289.027 577.083 287.571 575.207 287.571C573.573 287.571 572.431 288.891 572.431 290.494C572.431 292.233 573.678 293.416 575.365 293.416ZM573.992 290.043C574.118 289.32 574.547 288.849 575.207 288.849C575.878 288.849 576.297 289.331 576.391 290.043H573.992ZM582.47 293.395C583.801 293.395 585.026 292.369 585.026 290.494C585.026 288.597 583.78 287.571 582.47 287.571C581.643 287.571 581.108 287.958 580.721 288.482V285.643H579.128V293.291H580.721V292.557C581.098 293.008 581.622 293.395 582.47 293.395ZM582.062 292.044C581.318 292.044 580.7 291.426 580.7 290.494C580.7 289.54 581.318 288.922 582.062 288.922C582.805 288.922 583.434 289.54 583.434 290.473C583.434 291.436 582.805 292.044 582.062 292.044Z" fill="black"/>
<path d="M72.5283 251.174C68.5347 251.174 65.2891 247.928 65.2891 243.934C65.2891 240.206 68.1124 237.129 71.744 236.743C73.2522 233.848 76.2806 231.869 79.7675 231.869C84.1593 231.869 87.8151 234.994 88.6356 239.156C91.7726 239.374 94.246 241.956 94.246 245.141C94.246 248.471 91.5434 251.174 88.2133 251.174" stroke="black" stroke-width="1.44785" stroke-linecap="round"/>
<path d="M77.8913 240.923H74.3158L73.1445 246.123C74.8912 248.09 77.1826 252.89 79.864 251.322M77.8913 240.923L76.1652 243.66C76.1652 244.025 76.5104 244.7 77.8913 244.481L78.6311 243.66L79.864 243.112L84.3025 247.491M77.8913 240.923C78.6804 240.266 79.3708 240.285 79.6174 240.376L84.0111 242.291L85.5355 246.944L84.3025 247.491M84.3025 247.491C84.4669 248.221 84.4505 249.571 83.0696 249.133M83.0696 249.133L80.8503 246.67M83.0696 249.133C83.0696 249.571 81.9189 250.319 81.5901 250.501M79.3708 248.038L81.5901 250.501M81.5901 250.501C80.6037 251.327 80.0284 251.393 79.864 251.322M77.8913 249.133L79.864 251.322" stroke="#F48220" stroke-width="1.44785" stroke-linecap="round" stroke-linejoin="round"/>
<path d="M72.1772 240.33L70.9883 245.566" stroke="#9A0000" stroke-width="1.44785" stroke-linecap="round" stroke-linejoin="round"/>
<path d="M86.13 241.511L87.8443 246.6" stroke="#9A0000" stroke-width="1.44785" stroke-linecap="round" stroke-linejoin="round"/>
<path d="M106.727 246.27C108.681 246.27 109.84 245.662 110.882 244.547L109.463 243.027C108.667 243.751 107.958 244.214 106.799 244.214C105.062 244.214 103.86 242.767 103.86 241.029C103.86 239.263 105.091 237.844 106.799 237.844C107.958 237.844 108.624 238.264 109.405 238.973L110.737 237.439C109.796 236.512 108.725 235.788 106.814 235.788C103.701 235.788 101.529 238.148 101.529 241.029C101.529 243.968 103.744 246.27 106.727 246.27ZM115.013 246.241C116.127 246.241 116.779 245.648 117.286 244.996V246.097H119.486V238.336H117.286V242.665C117.286 243.708 116.75 244.243 115.91 244.243C115.071 244.243 114.578 243.708 114.578 242.665V238.336H112.378V243.36C112.378 245.141 113.348 246.241 115.013 246.241ZM124.178 246.241C125.858 246.241 127.146 245.46 127.146 243.737C127.146 242.289 125.887 241.768 124.801 241.406C123.961 241.116 123.223 240.913 123.223 240.479C123.223 240.146 123.498 239.914 124.033 239.914C124.598 239.914 125.365 240.189 126.133 240.638L126.972 239.118C126.133 238.553 125.061 238.22 124.077 238.22C122.513 238.22 121.239 239.104 121.239 240.682C121.239 242.216 122.47 242.723 123.556 243.042C124.41 243.302 125.163 243.462 125.163 243.939C125.163 244.316 124.873 244.547 124.236 244.547C123.512 244.547 122.629 244.229 121.789 243.621L120.848 245.069C121.876 245.88 123.092 246.241 124.178 246.241ZM131.203 246.227C131.941 246.227 132.477 246.053 132.94 245.778V244.012C132.622 244.186 132.26 244.287 131.854 244.287C131.362 244.287 131.145 244.041 131.145 243.534V240.218H132.969V238.336H131.145V236.353H128.944V238.336H128.018V240.218H128.944V243.896C128.944 245.691 129.856 246.227 131.203 246.227ZM138.187 246.27C140.605 246.27 142.4 244.461 142.4 242.231C142.4 239.972 140.62 238.191 138.216 238.191C135.798 238.191 134.003 240.001 134.003 242.231C134.003 244.49 135.784 246.27 138.187 246.27ZM138.216 244.374C137 244.374 136.175 243.375 136.175 242.231C136.175 241.058 136.928 240.088 138.187 240.088C139.403 240.088 140.229 241.087 140.229 242.231C140.229 243.404 139.476 244.374 138.216 244.374ZM143.994 246.097H146.195V241.768C146.195 240.725 146.701 240.189 147.527 240.189C148.352 240.189 148.815 240.725 148.815 241.768V246.097H151.016V241.768C151.016 240.725 151.523 240.189 152.348 240.189C153.173 240.189 153.637 240.725 153.637 241.768V246.097H155.837V241.044C155.837 239.176 154.853 238.191 153.217 238.191C152.16 238.191 151.349 238.626 150.669 239.422C150.263 238.64 149.496 238.191 148.482 238.191C147.367 238.191 146.701 238.785 146.195 239.437V238.336H143.994V246.097ZM161.429 246.27C162.833 246.27 163.876 245.72 164.6 244.823L163.34 243.708C162.732 244.272 162.196 244.504 161.458 244.504C160.473 244.504 159.778 243.983 159.561 242.984H164.962C164.976 242.781 164.991 242.578 164.991 242.405C164.991 240.204 163.803 238.191 161.212 238.191C158.953 238.191 157.375 240.016 157.375 242.231C157.375 244.634 159.098 246.27 161.429 246.27ZM159.532 241.608C159.706 240.609 160.3 239.958 161.212 239.958C162.138 239.958 162.717 240.624 162.848 241.608H159.532ZM166.631 246.097H168.831V243.23C168.831 241.377 169.729 240.494 171.191 240.494H171.307V238.191C170.004 238.134 169.28 238.828 168.831 239.9V238.336H166.631V246.097ZM176.951 246.097H185.392V244.142H179.817L185.392 237.656V235.962H177.124V237.916H182.525L176.951 244.403V246.097ZM190.714 246.27C193.132 246.27 194.927 244.461 194.927 242.231C194.927 239.972 193.146 238.191 190.743 238.191C188.325 238.191 186.53 240.001 186.53 242.231C186.53 244.49 188.311 246.27 190.714 246.27ZM190.743 244.374C189.527 244.374 188.702 243.375 188.702 242.231C188.702 241.058 189.454 240.088 190.714 240.088C191.93 240.088 192.756 241.087 192.756 242.231C192.756 243.404 192.003 244.374 190.743 244.374ZM196.521 246.097H198.722V241.768C198.722 240.725 199.257 240.189 200.097 240.189C200.937 240.189 201.429 240.725 201.429 241.768V246.097H203.63V241.073C203.63 239.292 202.66 238.191 200.995 238.191C199.88 238.191 199.228 238.785 198.722 239.437V238.336H196.521V246.097ZM209.219 246.27C210.624 246.27 211.666 245.72 212.39 244.823L211.13 243.708C210.522 244.272 209.986 244.504 209.248 244.504C208.264 244.504 207.569 243.983 207.351 242.984H212.752C212.766 242.781 212.781 242.578 212.781 242.405C212.781 240.204 211.594 238.191 209.002 238.191C206.743 238.191 205.165 240.016 205.165 242.231C205.165 244.634 206.888 246.27 209.219 246.27ZM207.322 241.608C207.496 240.609 208.09 239.958 209.002 239.958C209.929 239.958 210.508 240.624 210.638 241.608H207.322Z" fill="black"/>
<g filter="url(#filter6_d_2609:76582)">
<circle cx="356.133" cy="216.406" r="140.069" fill="white"/>
</g>
<g clip-path="url(#clip1_2609:76582)">
<path fill-rule="evenodd" clip-rule="evenodd" d="M282.82 242.656H309.07V190.156H282.82V242.656Z" fill="#1A1919"/>
<path fill-rule="evenodd" clip-rule="evenodd" d="M309.07 242.656H335.32V190.156H309.07V242.656Z" fill="#F48220"/>
<path fill-rule="evenodd" clip-rule="evenodd" d="M305.23 204.329C304.731 202.927 303.644 201.695 302.083 200.764L302.082 200.763H302.081C300.454 199.821 298.427 199.344 296.058 199.344C294.242 199.344 292.682 199.648 291.293 200.274C289.931 200.859 288.842 201.706 288.059 202.787C287.261 203.89 286.782 205.02 286.636 206.145C286.479 207.408 286.396 209.175 286.396 211.254V220.366C286.396 223.533 286.65 225.814 287.171 227.338C287.171 227.337 287.17 227.336 287.169 227.334C287.654 228.892 288.714 230.143 290.322 231.05C291.875 231.928 293.884 232.374 296.296 232.374C298.576 232.374 300.558 231.845 302.184 230.806C303.739 229.782 304.778 228.551 305.277 227.15L305.278 227.146L305.279 227.143C305.73 225.736 305.958 223.391 305.958 220.174V218.975V218.764H305.748H297.68H297.471V218.975V222.907C297.471 224.567 297.379 225.637 297.199 226.089C297.047 226.472 296.758 226.627 296.2 226.627C295.466 226.627 295.253 226.33 295.159 226.1C295.054 225.747 294.93 224.955 294.93 223.195V208.666C294.93 207.219 295.014 206.109 295.159 205.616C295.317 205.229 295.674 205.041 296.248 205.041C296.599 205.041 297.047 205.125 297.198 205.528L297.201 205.537L297.207 205.547C297.327 205.789 297.471 206.485 297.471 208.426V213.844V214.055H297.68H305.748H305.958V213.844V210.871C305.958 207.937 305.714 205.735 305.23 204.329" fill="#FFFFFE"/>
<path fill-rule="evenodd" clip-rule="evenodd" d="M320.02 213.988L321.737 207.323V220.654H318.301L320.02 213.988ZM329.47 220.654V200.226H319.207L312.477 220.654V225.975H321.736V231.491H329.47V225.975H331.714V220.654H329.47Z" fill="#1A1919"/>
</g>
<path d="M350.65 223.906V205.531H358.158C360.328 205.531 362.043 206.117 363.303 207.29C364.563 208.462 365.193 210.011 365.193 211.936C365.193 213.984 364.493 215.576 363.093 216.714C361.693 217.834 359.917 218.394 357.764 218.394H354.693V223.906H350.65ZM354.693 214.797H357.895C358.893 214.797 359.672 214.535 360.232 214.01C360.809 213.485 361.098 212.802 361.098 211.962C361.098 211.07 360.809 210.387 360.232 209.915C359.654 209.425 358.849 209.18 357.817 209.18H354.693V214.797ZM379.974 222.095C378.521 223.512 376.71 224.221 374.54 224.221C372.37 224.221 370.559 223.521 369.106 222.121C367.671 220.704 366.954 218.962 366.954 216.897C366.954 214.85 367.68 213.117 369.133 211.7C370.603 210.282 372.423 209.574 374.593 209.574C376.763 209.574 378.565 210.282 380 211.7C381.453 213.1 382.179 214.832 382.179 216.897C382.179 218.945 381.444 220.677 379.974 222.095ZM374.593 220.782C375.695 220.782 376.579 220.415 377.244 219.68C377.909 218.927 378.241 218 378.241 216.897C378.241 215.83 377.891 214.92 377.191 214.167C376.509 213.397 375.625 213.012 374.54 213.012C373.438 213.012 372.554 213.389 371.889 214.141C371.224 214.876 370.891 215.795 370.891 216.897C370.891 217.965 371.233 218.884 371.915 219.654C372.615 220.406 373.508 220.782 374.593 220.782ZM385.068 223.906V209.836H389.058V212.671C389.968 210.519 391.464 209.486 393.547 209.574V213.747H393.337C391.972 213.747 390.913 214.167 390.16 215.007C389.425 215.83 389.058 217.064 389.058 218.709V223.906H385.068ZM400.791 224.142C399.478 224.142 398.463 223.827 397.746 223.197C397.046 222.55 396.696 221.456 396.696 219.916V213.249H395.016V209.836H396.696V206.24H400.686V209.836H403.993V213.249H400.686V219.26C400.686 220.17 401.115 220.625 401.972 220.625C402.672 220.625 403.328 220.459 403.941 220.126V223.329C403.031 223.871 401.981 224.142 400.791 224.142ZM410.924 224.169C409.542 224.169 408.387 223.784 407.459 223.014C406.549 222.244 406.094 221.176 406.094 219.811C406.094 218.324 406.602 217.204 407.617 216.451C408.649 215.699 410.032 215.322 411.764 215.322C412.937 215.322 414.083 215.515 415.203 215.9V215.664C415.203 213.949 414.197 213.091 412.184 213.091C410.977 213.091 409.682 213.345 408.299 213.852L407.302 210.807C409.017 210.055 410.837 209.679 412.762 209.679C414.879 209.679 416.463 210.204 417.513 211.254C418.528 212.269 419.036 213.765 419.036 215.742V223.906H415.177V222.384C414.109 223.574 412.692 224.169 410.924 224.169ZM412.132 221.412C413.059 221.412 413.812 221.185 414.389 220.73C414.967 220.257 415.256 219.662 415.256 218.945V218.236C414.503 217.886 413.654 217.711 412.709 217.711C411.834 217.711 411.152 217.886 410.662 218.236C410.189 218.569 409.953 219.059 409.953 219.706C409.953 220.231 410.154 220.651 410.557 220.966C410.959 221.264 411.484 221.412 412.132 221.412ZM422.653 223.906V204.744H426.643V223.906H422.653Z" fill="black"/>
<defs>
<filter id="filter0_d_2609:76582" x="300.021" y="290.816" width="211.808" height="211.807" filterUnits="userSpaceOnUse" color-interpolation-filters="sRGB">
<feFlood flood-opacity="0" result="BackgroundImageFix"/>
<feColorMatrix in="SourceAlpha" type="matrix" values="0 0 0 0 0 0 0 0 0 0 0 0 0 0 0 0 0 0 127 0" result="hardAlpha"/>
<feOffset dy="33.5433"/>
<feGaussianBlur stdDeviation="25.1575"/>
<feColorMatrix type="matrix" values="0 0 0 0 0 0 0 0 0 0 0 0 0 0 0 0 0 0 0.12 0"/>
<feBlend mode="normal" in2="BackgroundImageFix" result="effect1_dropShadow_2609:76582"/>
<feBlend mode="normal" in="SourceGraphic" in2="effect1_dropShadow_2609:76582" result="shape"/>
</filter>
<filter id="filter1_d_2609:76582" x="68.5913" y="0.228355" width="276.669" height="276.669" filterUnits="userSpaceOnUse" color-interpolation-filters="sRGB">
<feFlood flood-opacity="0" result="BackgroundImageFix"/>
<feColorMatrix in="SourceAlpha" type="matrix" values="0 0 0 0 0 0 0 0 0 0 0 0 0 0 0 0 0 0 127 0" result="hardAlpha"/>
<feOffset dy="33.5433"/>
<feGaussianBlur stdDeviation="25.1575"/>
<feColorMatrix type="matrix" values="0 0 0 0 0 0 0 0 0 0 0 0 0 0 0 0 0 0 0.12 0"/>
<feBlend mode="normal" in2="BackgroundImageFix" result="effect1_dropShadow_2609:76582"/>
<feBlend mode="normal" in="SourceGraphic" in2="effect1_dropShadow_2609:76582" result="shape"/>
</filter>
<filter id="filter2_d_2609:76582" x="132.553" y="249.107" width="268.967" height="268.966" filterUnits="userSpaceOnUse" color-interpolation-filters="sRGB">
<feFlood flood-opacity="0" result="BackgroundImageFix"/>
<feColorMatrix in="SourceAlpha" type="matrix" values="0 0 0 0 0 0 0 0 0 0 0 0 0 0 0 0 0 0 127 0" result="hardAlpha"/>
<feOffset dy="32.6094"/>
<feGaussianBlur stdDeviation="24.4571"/>
<feColorMatrix type="matrix" values="0 0 0 0 0 0 0 0 0 0 0 0 0 0 0 0 0 0 0.12 0"/>
<feBlend mode="normal" in2="BackgroundImageFix" result="effect1_dropShadow_2609:76582"/>
<feBlend mode="normal" in="SourceGraphic" in2="effect1_dropShadow_2609:76582" result="shape"/>
</filter>
<filter id="filter3_d_2609:76582" x="0.685085" y="118.328" width="282.956" height="282.956" filterUnits="userSpaceOnUse" color-interpolation-filters="sRGB">
<feFlood flood-opacity="0" result="BackgroundImageFix"/>
<feColorMatrix in="SourceAlpha" type="matrix" values="0 0 0 0 0 0 0 0 0 0 0 0 0 0 0 0 0 0 127 0" result="hardAlpha"/>
<feOffset dy="17.6384"/>
<feGaussianBlur stdDeviation="25.1575"/>
<feColorMatrix type="matrix" values="0 0 0 0 0 0 0 0 0 0 0 0 0 0 0 0 0 0 0.12 0"/>
<feBlend mode="normal" in2="BackgroundImageFix" result="effect1_dropShadow_2609:76582"/>
<feBlend mode="normal" in="SourceGraphic" in2="effect1_dropShadow_2609:76582" result="shape"/>
</filter>
<filter id="filter4_d_2609:76582" x="384.724" y="158.788" width="285.052" height="285.052" filterUnits="userSpaceOnUse" color-interpolation-filters="sRGB">
<feFlood flood-opacity="0" result="BackgroundImageFix"/>
<feColorMatrix in="SourceAlpha" type="matrix" values="0 0 0 0 0 0 0 0 0 0 0 0 0 0 0 0 0 0 127 0" result="hardAlpha"/>
<feOffset dy="11.759"/>
<feGaussianBlur stdDeviation="25.1575"/>
<feColorMatrix type="matrix" values="0 0 0 0 0 0 0 0 0 0 0 0 0 0 0 0 0 0 0.12 0"/>
<feBlend mode="normal" in2="BackgroundImageFix" result="effect1_dropShadow_2609:76582"/>
<feBlend mode="normal" in="SourceGraphic" in2="effect1_dropShadow_2609:76582" result="shape"/>
</filter>
<filter id="filter5_d_2609:76582" x="411.641" y="55.6284" width="215.34" height="215.34" filterUnits="userSpaceOnUse" color-interpolation-filters="sRGB">
<feFlood flood-opacity="0" result="BackgroundImageFix"/>
<feColorMatrix in="SourceAlpha" type="matrix" values="0 0 0 0 0 0 0 0 0 0 0 0 0 0 0 0 0 0 127 0" result="hardAlpha"/>
<feOffset dy="9.56785"/>
<feGaussianBlur stdDeviation="20.4697"/>
<feColorMatrix type="matrix" values="0 0 0 0 0 0 0 0 0 0 0 0 0 0 0 0 0 0 0.12 0"/>
<feBlend mode="normal" in2="BackgroundImageFix" result="effect1_dropShadow_2609:76582"/>
<feBlend mode="normal" in="SourceGraphic" in2="effect1_dropShadow_2609:76582" result="shape"/>
</filter>
<filter id="filter6_d_2609:76582" x="165.873" y="54.2977" width="380.522" height="380.522" filterUnits="userSpaceOnUse" color-interpolation-filters="sRGB">
<feFlood flood-opacity="0" result="BackgroundImageFix"/>
<feColorMatrix in="SourceAlpha" type="matrix" values="0 0 0 0 0 0 0 0 0 0 0 0 0 0 0 0 0 0 127 0" result="hardAlpha"/>
<feOffset dy="28.1525"/>
<feGaussianBlur stdDeviation="25.0959"/>
<feColorMatrix type="matrix" values="0 0 0 0 0 0 0 0 0 0 0 0 0 0 0 0 0 0 0.2 0"/>
<feBlend mode="normal" in2="BackgroundImageFix" result="effect1_dropShadow_2609:76582"/>
<feBlend mode="normal" in="SourceGraphic" in2="effect1_dropShadow_2609:76582" result="shape"/>
</filter>
<clipPath id="clip0_2609:76582">
<rect width="21.6976" height="16.2732" fill="white" transform="translate(220.371 343.7)"/>
</clipPath>
<clipPath id="clip1_2609:76582">
<rect x="282.82" y="190.156" width="52.5" height="52.5" rx="2.625" fill="white"/>
</clipPath>
</defs>
</svg>
