<svg width="40" height="40" viewBox="0 0 40 40" fill="none" xmlns="http://www.w3.org/2000/svg">
<path fill-rule="evenodd" clip-rule="evenodd" d="M0 40H20V0H0V40Z" fill="#1A1919"/>
<path fill-rule="evenodd" clip-rule="evenodd" d="M20 40H40V0H20V40Z" fill="#F48220"/>
<path fill-rule="evenodd" clip-rule="evenodd" d="M17.074 10.7987C16.6937 9.72982 15.8656 8.79118 14.6765 8.08217L14.6759 8.08129H14.6749C13.4349 7.36398 11.891 7 10.0856 7C8.70226 7 7.51373 7.23167 6.45545 7.70901C5.41762 8.15487 4.5878 8.79992 3.9915 9.62345C3.38346 10.464 3.01866 11.3249 2.90755 12.1819C2.78774 13.1446 2.72479 14.4906 2.72479 16.0749V23.0171C2.72479 25.4303 2.91814 27.1677 3.31471 28.3293C3.31471 28.3286 3.31413 28.3277 3.3134 28.3261C3.68299 29.5133 4.49076 30.4664 5.71541 31.1572C6.89872 31.8266 8.42942 32.1656 10.2672 32.1656C12.0047 32.1656 13.5144 31.7627 14.7531 30.971C15.938 30.1909 16.73 29.2535 17.1097 28.1855L17.1109 28.1829L17.1113 28.1804C17.4548 27.1083 17.6287 25.3219 17.6287 22.8707V21.9574V21.7968H17.4687H11.322H11.1621V21.9574V24.953C11.1621 26.218 11.0925 27.033 10.9553 27.3771C10.8397 27.6693 10.6189 27.7874 10.1944 27.7874C9.63463 27.7874 9.47247 27.5608 9.40125 27.3861C9.32118 27.1166 9.22661 26.5134 9.22661 25.1723V14.1026C9.22661 13.0006 9.29014 12.1542 9.40125 11.779C9.52149 11.4841 9.79375 11.341 10.2309 11.341C10.4981 11.341 10.8397 11.4047 10.9541 11.7116L10.957 11.719L10.9611 11.7266C11.0528 11.9111 11.1621 12.4413 11.1621 13.9198V18.0481V18.2086H11.322H17.4687H17.6287V18.0481V15.7829C17.6287 13.5475 17.4426 11.8697 17.074 10.7987Z" fill="#FFFFFE"/>
<path fill-rule="evenodd" clip-rule="evenodd" d="M28.343 18.1573L29.6517 13.0792V23.2364H27.034L28.343 18.1573ZM35.5441 23.2364V7.67258H27.7244L22.5965 23.2364V27.291H29.6517V31.4932H35.5441V27.291H37.2535V23.2364H35.5441Z" fill="#1A1919"/>
</svg>
