<svg width="21" height="20" viewBox="0 0 21 20" fill="none" xmlns="http://www.w3.org/2000/svg">
<g clip-path="url(#clip0_4464:24843)">
<path d="M20.3042 10.2302C20.3042 9.55044 20.2491 8.86699 20.1315 8.19824H10.6992V12.0491H16.1007C15.8765 13.291 15.1563 14.3897 14.1018 15.0878V17.5864H17.3243C19.2166 15.8448 20.3042 13.2726 20.3042 10.2302Z" fill="#1581E2"/>
<path d="M10.6999 20.0008C13.397 20.0008 15.6714 19.1152 17.3286 17.5867L14.1061 15.088C13.2096 15.698 12.0521 16.0434 10.7036 16.0434C8.09474 16.0434 5.88272 14.2833 5.08904 11.917H1.76367V14.4928C3.46127 17.8696 6.91892 20.0008 10.6999 20.0008Z" fill="#34A853"/>
<path d="M5.08467 11.9168C4.66578 10.6748 4.66578 9.32995 5.08467 8.08799V5.51221H1.76297C0.344635 8.33785 0.344635 11.6669 1.76297 14.4925L5.08467 11.9168Z" fill="#FBBC04"/>
<path d="M10.6999 3.95805C12.1256 3.936 13.5035 4.47247 14.536 5.45722L17.3911 2.60218C15.5833 0.904587 13.1838 -0.0287217 10.6999 0.000673888C6.91892 0.000673888 3.46127 2.13185 1.76367 5.51234L5.08537 8.08813C5.87538 5.71811 8.09107 3.95805 10.6999 3.95805Z" fill="#EA4335"/>
</g>
<defs>
<clipPath id="clip0_4464:24843">
<rect width="20" height="20" fill="white" transform="translate(0.5)"/>
</clipPath>
</defs>
</svg>
